<?xml version="1.0" encoding="iso-8859-1"?>
<!-- Generator: Adobe Illustrator 19.0.0, SVG Export Plug-In . SVG Version: 6.00 Build 0)  -->
<svg version="1.1" id="Capa_1" xmlns="http://www.w3.org/2000/svg" xmlns:xlink="http://www.w3.org/1999/xlink" x="0px" y="0px"
	 viewBox="0 0 512 512" style="enable-background:new 0 0 512 512;" xml:space="preserve">
<circle style="fill:#FFB844;" cx="256" cy="256" r="256"/>
<path style="fill:#E57409;" d="M512,256c0-9.126-0.487-18.139-1.418-27.018L399.598,117.998C363.36,80.3,312.424,56.833,256,56.833
	C146.01,56.833,56.833,146,56.833,256c0,56.418,23.469,107.355,61.168,143.594L228.99,510.583C237.867,511.514,246.877,512,256,512
	C397.385,512,512,397.385,512,256z"/>
<path style="fill:#56545B;" d="M256,56.833C146.01,56.833,56.833,146,56.833,256c0,109.99,89.176,199.167,199.167,199.167
	c110,0,199.167-89.176,199.167-199.167C455.167,146,366,56.833,256,56.833z M255.999,299.272c-23.9,0-43.271-19.371-43.271-43.271
	c0-23.912,19.371-43.283,43.271-43.283c23.912,0,43.283,19.371,43.283,43.283C299.282,279.901,279.911,299.272,255.999,299.272z"/>
<path style="fill:#29292B;" d="M256.167,56.833v155.88c23.83,0.09,43.12,19.44,43.12,43.29c0,23.84-19.29,43.18-43.12,43.27v155.89
	c109.92-0.09,199-89.23,199-199.16C455.167,146.064,366.086,56.924,256.167,56.833z"/>
<path style="fill:#77767E;" d="M323.633,443.383c-21.116,7.633-43.889,11.783-67.633,11.783c-23.723,0-46.476-4.15-67.571-11.762
	l52.868-146.695c4.588,1.658,9.541,2.565,14.703,2.565c5.172,0,10.125-0.907,14.724-2.565L323.633,443.383z"/>
<path style="fill:#56545B;" d="M323.637,443.384c-21.07,7.61-43.78,11.76-67.47,11.78v-155.89c5.12-0.02,10.01-0.93,14.56-2.56
	L323.637,443.384z"/>
<path style="fill:#77767E;" d="M323.57,68.596L270.703,215.28c-4.588-1.668-9.541-2.565-14.703-2.565
	c-5.162,0-10.115,0.907-14.713,2.565l-52.91-146.664c21.116-7.633,43.879-11.783,67.623-11.783
	C279.723,56.833,302.476,60.984,323.57,68.596z"/>
<path style="fill:#56545B;" d="M323.566,68.593l-52.86,146.69c-4.54-1.65-9.43-2.55-14.54-2.57V56.833
	C279.836,56.854,302.526,61.003,323.566,68.593z"/>
<path style="fill:#FEF4CB;" d="M256,177.964c-43.099,0-78.036,34.937-78.036,78.036s34.937,78.036,78.036,78.036
	s78.036-34.937,78.036-78.036S299.099,177.964,256,177.964z M256,292.664c-20.251,0-36.663-16.413-36.663-36.664
	c0-20.261,16.413-36.674,36.663-36.674c20.261,0,36.674,16.413,36.674,36.674C292.674,276.25,276.261,292.664,256,292.664z"/>
<path style="fill:#00E9F3;" d="M256.167,177.964v41.36c20.18,0.09,36.51,16.48,36.51,36.68c0,20.19-16.33,36.57-36.51,36.66v41.37
	c43.02-0.09,77.87-34.99,77.87-78.03C334.036,212.964,299.186,178.053,256.167,177.964z"/>
<g>
</g>
<g>
</g>
<g>
</g>
<g>
</g>
<g>
</g>
<g>
</g>
<g>
</g>
<g>
</g>
<g>
</g>
<g>
</g>
<g>
</g>
<g>
</g>
<g>
</g>
<g>
</g>
<g>
</g>
</svg>
